<svg xmlns="http://www.w3.org/2000/svg" id="prefix__Component_78_1" width="493.073" height="355.771" data-name="Component 78 – 1" viewBox="0 0 493.073 355.771">
    <defs>
        <linearGradient id="prefix__linear-gradient" x2="1" y1=".5" y2=".5" gradientUnits="objectBoundingBox">
            <stop offset="0" stop-color="#ab7e9c"/>
            <stop offset=".197" stop-color="#8b7caa"/>
            <stop offset=".719" stop-color="#363c85"/>
        </linearGradient>
        <style>
            .prefix__cls-1,.prefix__cls-6{fill:#fff}.prefix__cls-2{fill:#eaecf7}.prefix__cls-3{fill:#ffb2b2}.prefix__cls-4{fill:#c5cae5}.prefix__cls-5{fill:#d9d472}.prefix__cls-6{stroke:#000;stroke-miterlimit:10;stroke-width:.764px}.prefix__cls-10{fill:#5d69a5}.prefix__cls-11{fill:#848fc7}.prefix__cls-20{fill:#ffd0d0}.prefix__cls-23,.prefix__cls-24{fill:none;stroke:#fff}.prefix__cls-23{stroke-linecap:round}
        </style>
    </defs>
    <circle id="prefix__Ellipse_650" cx="13" cy="13" r="13" class="prefix__cls-1" data-name="Ellipse 650" transform="translate(55.073 66.049)"/>
    <ellipse id="prefix__Ellipse_651" cx="7.5" cy="8" class="prefix__cls-1" data-name="Ellipse 651" rx="7.5" ry="8" transform="translate(116.073 38.049)"/>
    <path id="prefix__Path_10785" d="M664.462 445.371c19.168-10.1 1.7-.162 2.688-.695 17.357-9.349 30.887-53.162-.488-44.763-38.083 10.194-98.356 63.675-85.395-65.031 8.07-80.142 136.568-156.515 159.776-122.012 65.827 97.866 75.732 36.871 109.191 16.142s79.923-28.755 142.2 26.334c57.285 50.671 50.918 157.812 8.079 186.768-28.431 19.217-90.874 47.935-90.874 47.935s231.333 47.687 119.874 55.922c-111.021 8.203-490.481-34.49-365.051-100.6z" class="prefix__cls-2" data-name="Path 10785" transform="translate(-579.474 -204.36)"/>
    <path id="prefix__Path_10786" d="M723.99 454.258c15.449-7.575 31.377-23.837 31.928-61.422 1.18-80.568 113.279-21.272 132.671-31.022 37.185-18.7 53.21-163.381 133.69-90.3 56.945 51.713 51.108 159.063 8.07 188.262-28.562 19.378-91.293 48.34-91.293 48.34s231.17 38.074 120.4 56.341c-192.017 31.664-481.909-31.613-372.861-97.837 3.699-2.244 24.443-6.011 37.395-12.362z" class="prefix__cls-2" data-name="Path 10786" transform="translate(-607.534 -220.088)"/>
    <path id="prefix__Path_10787" d="M1035.813 348.035s-2.372 10.321.854 24.61 12.691 15.045 12.691 15.045 1.141-1.489 2.89 1.625 2.619 9.687 2.619 9.687l-7.8 1.7s5.52 1.277 8.758 5.532 22.526-1.641 22.835-4.357-2.493-3.684-6.215-6.536-8.5-3.559-8.089-15.653-16.581-35.216-28.543-31.653z" class="prefix__cls-3" data-name="Path 10787" transform="translate(-732.918 -252.636)"/>
    <path id="prefix__Path_10788" d="M1055.393 321.863s-16.4 3.773-23.64 18.51c-1.054 2.146 4.591 9.426 8.883 11.535s2.135 11.089 7.432 15.74 15.158 3.347 15.158 3.347 15.665-18.124 7.885-36.494-9.638-2.07-15.718-12.638z" data-name="Path 10788" transform="translate(-731.79 -243.944)"/>
    <path id="prefix__Path_10789" d="M1071.418 315.764s-3.363-6.081-.994-8.4 9.253-5.906 12.4-2.309 5.992 9.91 5.112 13.371-4.477 6.612-4.477 6.612-3.952 2.202-12.041-9.274z" data-name="Path 10789" transform="translate(-744.576 -237.768)"/>
    <path id="prefix__Path_10790" d="M1092.108 339.14l.2.207.146.195c.1.129.172.259.256.388.157.261.307.521.444.786.283.526.533 1.064.781 1.6q.73 1.622 1.3 3.311a22.539 22.539 0 0 1 .886 3.456 8.365 8.365 0 0 1-.26 3.592c-.6 2.309-1.609 4.453-2.337 6.668a12.319 12.319 0 0 0-.426 1.678 3.229 3.229 0 0 0 .079 1.635 8.016 8.016 0 0 0 2.33 2.492 2.187 2.187 0 0 1 1.122 1.966l-.11.47a3.224 3.224 0 0 1-.487.784 9.121 9.121 0 0 1-2.825 2.162c-1.047.556-2.144.994-3.221 1.457a9.626 9.626 0 0 0-1.551.79 1.077 1.077 0 0 0-.5.609.856.856 0 0 0 .364.672 6.564 6.564 0 0 0 1.483.9c.529.251 1.068.484 1.614.7 1.09.434 2.2.809 3.322 1.168s2.254.674 3.341 1.133a1.528 1.528 0 0 1 .715.507.328.328 0 0 1-.154.39 1.949 1.949 0 0 1-.386.216 11.059 11.059 0 0 1-1.685.517 11.069 11.069 0 0 0 1.676-.536 1.905 1.905 0 0 0 .378-.217c.114-.084.21-.226.143-.357a1.514 1.514 0 0 0-.7-.482c-1.086-.444-2.229-.737-3.349-1.092s-2.244-.708-3.344-1.131q-.825-.314-1.629-.684a6.7 6.7 0 0 1-1.532-.907 1.009 1.009 0 0 1-.427-.82 1.235 1.235 0 0 1 .565-.736 9.72 9.72 0 0 1 1.576-.828c1.077-.478 2.161-.926 3.186-1.487a8.87 8.87 0 0 0 2.715-2.122 1.682 1.682 0 0 0 .481-1.487 2.976 2.976 0 0 0-1-1.305 8.224 8.224 0 0 1-2.455-2.6 3.591 3.591 0 0 1-.124-1.84 12.536 12.536 0 0 1 .42-1.742c.714-2.259 1.689-4.41 2.249-6.664a7.812 7.812 0 0 0 .211-3.383 21.8 21.8 0 0 0-.9-3.357 34.735 34.735 0 0 0-1.311-3.239c-.249-.526-.5-1.052-.781-1.558-.136-.255-.282-.5-.432-.744-.077-.116-.15-.243-.233-.345l-.12-.157c-.036-.034-.071-.07-.1-.107z" data-name="Path 10790" transform="translate(-750.701 -249.764)"/>
    <path id="prefix__Path_10791" d="M909.767 525.709s37.267-35.5 84.9-12.128c32.831 16.111 12.129 40.355 12.129 40.355z" class="prefix__cls-4" data-name="Path 10791" transform="translate(-690.741 -305.845)"/>
    <path id="prefix__Path_10792" d="M916.085 554.562s24.257-2.058 24.7-1.911 63.508 12.349 63.949 12.643 13.819 26.315 13.231 26.609-24.992 3.823-36.753.294S940.342 579.7 935.2 575s-19.115-20.438-19.115-20.438z" class="prefix__cls-5" data-name="Path 10792" transform="translate(-692.868 -321.687)"/>
    <path id="prefix__Path_10793" d="M876.531 569.061l-2.931 17.146s-7.351-1.176-13.378-2.794a15.486 15.486 0 0 0-5.586-.441s-3.691 7.2 3.234 10c4.178 1.687 13.647 3.926 19.847 5 0 0 3.068-1.319 3.19-2.674s4.6-17.615 6.2-19.929-10.576-6.308-10.576-6.308z" class="prefix__cls-3" data-name="Path 10793" transform="translate(-671.838 -327.218)"/>
    <path id="prefix__Path_10794" d="M1052.357 318.714a32.216 32.216 0 0 0-5.526 1.683 34.291 34.291 0 0 0-5.183 2.615 27.924 27.924 0 0 0-4.628 3.515 26.713 26.713 0 0 0-3.8 4.415 26.824 26.824 0 0 1 3.686-4.535 28.242 28.242 0 0 1 4.565-3.675 34.765 34.765 0 0 1 5.169-2.794 32.661 32.661 0 0 1 5.6-1.876z" data-name="Path 10794" transform="translate(-732.328 -242.664)"/>
    <path id="prefix__Path_10795" d="M913.631 514.682c8.38-.441 11.007 17.9 50.921 39.95 3.909 2.16 23.1 7.994 33.9 3.418 8.373-3.546-16.318-42.78-16.318-42.78l-15.583 1.176s-55.327-35.691-60.862-32.2c-8.38 5.292-29.623 56.085-29.623 56.085s15.436 12.128 20.508 3.749c2.554-4.218.883 1.176.883 1.176z" class="prefix__cls-1" data-name="Path 10795" transform="translate(-679.388 -298.566)"/>
    <path id="prefix__Path_10796" d="M913.631 514.673c-12.337-6.1-2.4-33.928-7.938-30.431-8.38 5.292-29.623 56.085-29.623 56.085s15.436 12.129 20.508 3.749c2.554-4.218.883 1.176.883 1.176z" class="prefix__cls-1" data-name="Path 10796" transform="translate(-679.388 -298.543)"/>
    <g id="prefix__Group_14655" data-name="Group 14655" transform="translate(163.379 303.21)">
        <g id="prefix__Group_14654" data-name="Group 14654">
            <g id="prefix__Group_14653" data-name="Group 14653">
                <g id="prefix__Group_14652" data-name="Group 14652">
                    <g id="prefix__Group_14651" data-name="Group 14651"/>
                </g>
            </g>
        </g>
    </g>
    <path id="prefix__Path_10798" d="M887.265 611.182a6.988 6.988 0 0 1 .808 3.97l.367.662s.368-2.279 1.691-3.161" data-name="Path 10798" transform="translate(-683.159 -341.407)"/>
    <path id="prefix__Path_10799" d="M894.315 485.693l32.041 19.407 63.4-27.689-30.871-14.141z" data-name="Path 10799" transform="translate(-685.534 -291.58)" style="fill:#002e76"/>
    <g id="prefix__Group_14660" data-name="Group 14660" transform="translate(218.489 287.504)">
        <g id="prefix__Group_14659" data-name="Group 14659">
            <g id="prefix__Group_14658" data-name="Group 14658">
                <g id="prefix__Group_14657" data-name="Group 14657">
                    <g id="prefix__Group_14656" data-name="Group 14656"/>
                </g>
            </g>
        </g>
    </g>
    <g id="prefix__Group_14665" data-name="Group 14665" transform="translate(207.776 279.676)">
        <g id="prefix__Group_14664" data-name="Group 14664">
            <g id="prefix__Group_14663" data-name="Group 14663">
                <g id="prefix__Group_14662" data-name="Group 14662">
                    <g id="prefix__Group_14661" data-name="Group 14661"/>
                </g>
            </g>
        </g>
    </g>
    <path id="prefix__Path_10802" d="M890.348 633.551l-3.088 10.805v7.277s-11.687-1.544-13.672-1.544-9.041 5.733-15.216 4.411-8.379-1.544-8.379-1.544-2.426-3.749 3.528-3.969 13.452-5.734 14.113-5.954 9.262-3.308 9.482-3.969 1.324-9.7 1.324-9.7z" class="prefix__cls-3" data-name="Path 10802" transform="translate(-670.439 -347.531)"/>
    <path id="prefix__Path_10803" d="M880.706 600.358l-11.877-2.193a13.148 13.148 0 0 1 2.214-5.77s-1.467-.893-1.967-.5c-3.4 2.708-2.539 8.226-2.2 9.835a63.889 63.889 0 0 1-6.273-2.048c-.036-.015-1.082-.484-1.12-.482a11.575 11.575 0 0 1-2.667-1.558 3.192 3.192 0 0 1-1.293-2.215c-1.251-5.132 2.816-5.582 2.816-5.582-10.034-2.9-9.281 4.77-7.468 7.141a6.369 6.369 0 0 0 1.217 3.176c.334.485 5.577 2.715 6.493 2.638a29.892 29.892 0 0 1 3.794.576c3.073.853 6.482 1.641 9.5 2.284a15.551 15.551 0 0 0 2.411 1.362c.371.117 3 .5 3.143.5.078 0 .944-.213 1.752-.412.771.141 1.22.219 1.22.219l.024-.529.176-.044-.173-.025.12-2.638-2.022.17a91.382 91.382 0 0 1-9.245-1.87l.006-.409a7.772 7.772 0 0 1-.471-2.065c.774.164 4.264.8 10.579 1.92 6.799 1.203 1.311-1.481 1.311-1.481z" class="prefix__cls-1" data-name="Path 10803" transform="translate(-670.529 -334.003)"/>
    <path id="prefix__Path_10804" d="M864.326 417.5l72.755-13.34 12.03 39.392-64.875 22.21-19.91-48.262z" class="prefix__cls-1" data-name="Path 10804" transform="translate(-675.432 -271.666)"/>
    <path id="prefix__Path_10805" d="M906.8 534.8l-23.522 61.01s2.26 3.852 9.7 6.469c8.049 2.83 11.173-2.352 11.173-2.352l4.557-17.054s-16.024-19.993-5-36.165c0 0 20.618-1.1 20.618-.992 0 0 12.312 2.462 11.871 1.727-1.091-1.818-10.89-14.406-17.495-18.818-2.873-1.92-8.378.883-11.902 6.175z" data-name="Path 10805" transform="translate(-681.816 -313.393)" style="fill:#dfe2f4"/>
    <path id="prefix__Path_10806" d="M984.547 473.014l3.195-1.6 1.158-2.092s6.689-1.424 8.646-.05a32.934 32.934 0 0 1 6.891 6.867 1.968 1.968 0 0 0 1.008.708l24.857 10.341-3.228 14.412-25.79-19.329a47.1 47.1 0 0 1-7.489-2.042c-4.845-2.261-5.064-4.9-.934-3.25a10.115 10.115 0 0 0 3.359.387l-3.578-3.03a3.094 3.094 0 0 0-2.493-.758l-5.174 1.1c-.899.196-.848-.849-.428-1.664z" class="prefix__cls-3" data-name="Path 10806" transform="translate(-715.833 -293.402)"/>
    <path id="prefix__Path_10807" d="M1046.036 423.5L1026.5 425s13 12.332 6.555 39.008c0 0-16.577.7-16.411 10.743s2.479 21.917 3.3 23.86 7.326 32.241 23.462 42.3 48.627-71.73 45.817-97.642-18.065-25.32-20.048-25.156-3.654.207-3.654.207 8.281 7.455 7.015 8.23-17.193 6.1-20.878 3.394a20.923 20.923 0 0 1-5.622-6.444z" class="prefix__cls-1" data-name="Path 10807" transform="translate(-726.742 -276.357)"/>
    <rect id="prefix__Rectangle_3630" width="3.969" height="48.955" class="prefix__cls-10" data-name="Rectangle 3630" rx="1.985" transform="rotate(-17.569 1039.924 -913.381)"/>
    <path id="prefix__Path_10809" d="M1043.688 676.34c-.523 7.371-39.334 11.768-86.686 9.823s-104.273-8.785-103.749-16.155 58.293-12.484 105.647-10.538 85.312 9.499 84.788 16.87z" class="prefix__cls-4" data-name="Path 10809" transform="translate(-664.057 -351.427)"/>
    <rect id="prefix__Rectangle_3631" width="3.969" height="48.955" class="prefix__cls-10" data-name="Rectangle 3631" rx="1.985" transform="rotate(13.852 -923.489 1275.546)"/>
    <rect id="prefix__Rectangle_3632" width="3.969" height="48.955" class="prefix__cls-11" data-name="Rectangle 3632" rx="1.985" transform="rotate(18.85 -731.202 888.489)"/>
    <rect id="prefix__Rectangle_3633" width="3.969" height="48.955" class="prefix__cls-11" data-name="Rectangle 3633" rx="1.985" transform="rotate(-6.786 2609.201 -2392.906)"/>
    <path id="prefix__Path_10810" d="M1229.2 691.361l-40.134-2.646-19.1 4.965 60.117-1.216z" data-name="Path 10810" transform="translate(-778.392 -367.526)" style="fill:#b8bdd9"/>
    <path id="prefix__Path_10811" d="M1208.776 673.821h-40.543l-7.073-41.457h53.806z" data-name="Path 10811" transform="translate(-775.428 -348.543)" style="fill:#c3c3f5"/>
    <path id="prefix__Path_10812" d="M1175.034 494.027s21.03 14.732 21.03 40.215 2.023 41.011 5.258 43-14.155 1.593-15.368-5.973 4.448-43.8-5.663-50.965l6.471-1.991-8.9-.8-6.875-10.75 8.493-.8-11.324-1.991s-3.233-7.954 6.878-9.945z" data-name="Path 10812" transform="translate(-777.619 -301.941)" style="fill:#9da5d5"/>
    <path id="prefix__Path_10813" d="M1199.166 592.089c-1.215.525-6.336-56.043 23.556-73.465s38.2 6.45 38.2 6.45-6.925 5.247-12.352 3.347-3.629-7.757-3.629-7.757l-1.8 5.857s-12.7-2.007-20.491 11.142l-3.582-3.69.751 7.072s-.089 42.149-20.653 51.044z" data-name="Path 10813" transform="translate(-787.861 -308.083)" style="fill:#c1c8ea"/>
    <path id="prefix__Path_10814" d="M1243.4 559.205s-5.292 18.082-20.728 22.934-22.934 22.052-22.934 25.58c0 0 10.585-7.5 20.287-6.174s31.311-7.94 23.375-42.34z" data-name="Path 10814" transform="translate(-788.423 -323.898)" style="fill:#b2bbed"/>
    <path id="prefix__Path_10815" d="M1256.827 559.528a43.916 43.916 0 0 1 3.4 14.025 30.83 30.83 0 0 1-2.157 14.292 24.311 24.311 0 0 1-1.711 3.231c-.31.528-.67 1.015-1.024 1.507l-1.062 1.478a32.678 32.678 0 0 1-5.067 5.22 20.961 20.961 0 0 1-6.37 3.485 17.942 17.942 0 0 1-3.563.711 19.31 19.31 0 0 1-3.616-.067 21.907 21.907 0 0 0 3.6-.107 17.75 17.75 0 0 0 3.478-.845 20.623 20.623 0 0 0 6.153-3.573 35.379 35.379 0 0 0 4.909-5.19l1.033-1.465c.346-.488.7-.972.993-1.487a24 24 0 0 0 1.642-3.16 27.736 27.736 0 0 0 1.944-6.851 37.212 37.212 0 0 0 .314-7.148 44.6 44.6 0 0 0-.931-7.123 46.521 46.521 0 0 0-1.965-6.933z" class="prefix__cls-4" data-name="Path 10815" transform="translate(-800.524 -324.007)"/>
    <path id="prefix__Path_10854" d="M864.326 417.05l70.314-12.892 11.626 38.071-62.7 21.465-19.24-46.644z" data-name="Path 10854" transform="translate(-673.705 -270.579)" style="fill:#5966ad"/>
    <g id="prefix__Group_14666" data-name="Group 14666" transform="translate(438.176 218.624)">
        <path id="prefix__Path_10816" d="M1240.775 544.308l-.53-.4c4.795-6.354 9.525-7.39 12.067-7.946a15.672 15.672 0 0 1 6.068-.178l.506-1.393.363.312c2.944 2.522 5.385 2.566 5.41 2.566 5.672 1.065 10.533-3.182 10.583-3.224l.44.5c-.208.184-5.158 4.5-11.087 3.385a9.634 9.634 0 0 1-5.411-2.416l-.383 1.05-.29-.072a14.64 14.64 0 0 0-6.023.112c-2.665.583-7.067 1.546-11.713 7.704z" class="prefix__cls-4" data-name="Path 10816" transform="translate(-1240.245 -534.047)"/>
    </g>
    <path id="prefix__Path_10817" d="M887.387 649.644l.236-1.289s-15.893 1.652-17.088 2.241c-.027.013-.045.027-.069.04-.624-1.446-1.043-2.724-.849-3.227 0 0-1.323-.662-1.323.772 0 0 .3 5.342 3.43 8.154-2.2.768-9.706 3.346-11.956 3.533a31.767 31.767 0 0 1-4.37-.158c-1.447-1.586-1.253-5.685-1.253-5.685-9.418.185-8.379 3.473-8.269 4.851a6.676 6.676 0 0 0 .22 2.095 9.884 9.884 0 0 0 1.213 3.529c.3.629 9.152 3.087 11.357 2.426s9.262-6.616 13.231-6.616a26.361 26.361 0 0 1 7.718 1.324l-.221 8.6 1.544.22s1.323-7.277 2.426-8.159l1.1-.882s1.324 0 1.544-3.749l-12.721-1.436c-.4-.716-1.369-2.481-2.218-4.264 2.196-.22 12.47-1.264 16.318-2.32z" class="prefix__cls-1" data-name="Path 10817" transform="translate(-669.188 -353.56)"/>
    <path id="prefix__Path_10826" d="M1252.051 694.881a13.325 13.325 0 0 1 3.219 3.224 8.011 8.011 0 0 1 1.5 4.391 7.476 7.476 0 0 1-1.531 4.473 14.931 14.931 0 0 1-3.353 3.3 38.543 38.543 0 0 1-8.175 4.308 80.505 80.505 0 0 1-8.72 2.856c-11.8 3.165-23.9 4.712-35.974 5.9q-9.069.816-18.152 1.3c-6.057.28-12.114.543-18.173.63-12.116.23-24.234.123-36.339-.388l36.266-1.68c6.036-.334 12.071-.643 18.1-1.068 6.027-.391 12.048-.847 18.054-1.43 6.009-.541 12-1.206 17.968-2.05q4.475-.613 8.918-1.4c2.956-.547 5.9-1.126 8.825-1.812a87.4 87.4 0 0 0 8.625-2.478 37.646 37.646 0 0 0 8.042-3.75 13.8 13.8 0 0 0 3.277-2.849 6.785 6.785 0 0 0 1.617-3.874 7.485 7.485 0 0 0-1.111-4.162 13.128 13.128 0 0 0-2.883-3.441z" class="prefix__cls-4" data-name="Path 10826" transform="translate(-763.703 -369.603)"/>
    <path id="prefix__Path_10827" d="M999.9 215.883a158.58 158.58 0 0 1 38.47-5.942 152.907 152.907 0 0 1 19.533.79c1.619.2 3.248.327 4.861.58l4.84.746c1.609.276 3.205.625 4.809.935.8.167 1.606.3 2.4.5l2.378.588a139.908 139.908 0 0 1 36.341 14.483l1.077.588 1.046.641 2.086 1.294c1.383.874 2.791 1.71 4.153 2.615l4.019 2.818 2.009 1.41c.679.457 1.3 1 1.947 1.492 2.552 2.045 5.2 3.973 7.608 6.194l3.685 3.239c.625.528 1.211 1.1 1.791 1.675l1.751 1.716 3.493 3.443c1.147 1.164 2.214 2.4 3.326 3.6l3.3 3.623c1.08 1.226 2.086 2.518 3.132 3.774l3.109 3.794c.262.332.512.6.783.984l.716 1.025q.7 1.027 1.359 2.067c1.768 2.773 3.393 5.621 4.912 8.523a155.01 155.01 0 0 1 13.466 36.732 161.881 161.881 0 0 1 3.968 38.843 164.917 164.917 0 0 1-5.634 38.521 166.721 166.721 0 0 0-.319-76.892 158.7 158.7 0 0 0-13.693-36.034c-1.527-2.828-3.115-5.625-4.849-8.316q-.647-1.011-1.321-2l-.681-.967c-.192-.279-.494-.612-.736-.915l-3.074-3.725c-1.034-1.233-2.027-2.5-3.095-3.707l-3.267-3.561c-1.1-1.177-2.154-2.4-3.288-3.539l-3.449-3.381-1.719-1.7c-.569-.57-1.143-1.134-1.758-1.655l-3.616-3.2c-2.359-2.2-4.962-4.1-7.465-6.118-.639-.488-1.244-1.023-1.91-1.473l-1.971-1.391-3.942-2.784c-1.337-.894-2.718-1.72-4.075-2.583l-2.042-1.285-1.022-.641-1.053-.588a143.367 143.367 0 0 0-35.589-14.684l-2.335-.624c-.779-.2-1.572-.353-2.357-.532-1.576-.335-3.145-.71-4.728-1.012l-4.766-.826c-1.589-.28-3.2-.437-4.793-.662a160.094 160.094 0 0 0-38.684.034c-3.217.371-6.412.911-9.6 1.486q-2.391.44-4.77.949c-1.593.339-3.167.759-4.767 1.035z" data-name="Path 10827" transform="translate(-721.105 -206.226)" style="fill:#dcdfed"/>
    <path id="prefix__Path_10828" d="M1070.957 427.295s-30.493-1.033-39.351 17.568-27.3 60.956-29.726 95.126c0 0-59.61-5.92-74.7-19.018s-21.112-8.657-21.832-4.149 3.2 61.343 83.423 63.008 84.763-94.43 82.186-152.535z" data-name="Path 10828" transform="translate(-689.231 -279.457)" style="fill:#f0efbd"/>
    <g id="prefix__Group_14673" data-name="Group 14673" transform="translate(225.115 148.327)">
        <rect id="prefix__Rectangle_3634" width="2.235" height="9.947" class="prefix__cls-3" data-name="Rectangle 3634" rx="1.117" transform="rotate(-16.98 129.657 7.644)"/>
        <rect id="prefix__Rectangle_3635" width="2.235" height="9.947" class="prefix__cls-3" data-name="Rectangle 3635" rx="1.117" transform="rotate(-4.731 457.574 -74.747)"/>
        <path id="prefix__Path_10829" d="M994.1 428.062s-6.057-.83-8.044 7.32c-3.181 13.045-8.261 48.924-8.539 53.605l-.549 1.643a.523.523 0 0 1-.842.229c-2.764-2.433-4.666-2.7-32.632-19.018L937.545 464a2.458 2.458 0 0 0-1.8-1.564l-7.421-.989-4.839 3.364a2.368 2.368 0 0 0-1.146 1.32L919 473.244a.95.95 0 0 0 1.314 1.166c.448-.221 3.164-4.574 3.375-4.591.66-.055 2.451 1.88 4.239 2.976 5.257 3.225 8.507 2.29 8.507 2.29s43.573 47.132 50.675 29.409c.551-1.377 18.047-38.686 16.554-57.263.002.001-.813-17.898-9.564-19.169z" class="prefix__cls-3" data-name="Path 10829" transform="translate(-918.948 -428.038)"/>
    </g>
    <path id="prefix__Path_10830" d="M887.625 614.863s7.927-22.269 11.292-27.3a1.041 1.041 0 0 1 .924.407 1.538 1.538 0 0 1 .041 1.255l-9.308 27.284a5.672 5.672 0 0 1-2.949-1.646z" class="prefix__cls-1" data-name="Path 10830" transform="translate(-683.282 -333.451)"/>
    <path id="prefix__Path_10831" d="M880.764 553.945s7.511-19.079 10.573-23.34a.9.9 0 0 1 .789.379 1.335 1.335 0 0 1 0 1.089l-8.853 23.387a4.921 4.921 0 0 1-2.509-1.515z" class="prefix__cls-1" data-name="Path 10831" transform="translate(-680.97 -314.263)"/>
    <path id="prefix__Path_10832" d="M1074.485 429.453a286.519 286.519 0 0 1 .484 34.855 268.028 268.028 0 0 1-3.743 34.737c-.516 2.872-1.078 5.738-1.706 8.593s-1.347 5.689-2.117 8.513-1.629 5.624-2.55 8.407-1.951 5.534-3.053 8.258a102.38 102.38 0 0 1-8.019 15.737 71.425 71.425 0 0 1-11.162 13.829 69.3 69.3 0 0 1-31.119 16.588 89.812 89.812 0 0 1-35.139 1.206 99.743 99.743 0 0 1-33.118-11.367 83.79 83.79 0 0 1-14.32-10.081A64.322 64.322 0 0 1 917.47 545.6c6.935 9.348 16.33 16.534 26.544 21.786a97.993 97.993 0 0 0 15.943 6.514 103.1 103.1 0 0 0 16.779 3.729 89.441 89.441 0 0 0 34.007-1.692 71.548 71.548 0 0 0 15.854-6.094 62.856 62.856 0 0 0 13.743-9.867 68.6 68.6 0 0 0 10.7-13.156 102.594 102.594 0 0 0 7.856-15.209 173.374 173.374 0 0 0 9.784-33.047c1.139-5.658 2.052-11.366 2.826-17.1s1.371-11.489 1.834-17.261c.93-11.541 1.345-23.141 1.145-34.75z" class="prefix__cls-5" data-name="Path 10832" transform="translate(-693.335 -280.188)"/>
    <g id="prefix__Group_14674" data-name="Group 14674" transform="translate(208.717 193.53)">
        <path id="prefix__Path_10833" d="M926.324 516.758a.563.563 0 0 1-.3-.083l-31.54-19.426a.563.563 0 0 1 .591-.96l31.291 19.272 13.3-5.729a.563.563 0 1 1 .445 1.034l-13.573 5.845a.568.568 0 0 1-.214.047z" class="prefix__cls-1" data-name="Path 10833" transform="translate(-894.221 -496.204)"/>
    </g>
    <path id="prefix__Path_10834" d="M1032.2 348.615a5.9 5.9 0 0 0-.9 3.109 4.439 4.439 0 0 0 1.121 2.906 8.7 8.7 0 0 0 2.543 1.937 17.963 17.963 0 0 0 3.02 1.236c1.032.352 2.117.574 3.192.931a13.79 13.79 0 0 1 3.093 1.378 4.841 4.841 0 0 1 2.233 2.557 3.3 3.3 0 0 1-.924 3.137 3.235 3.235 0 0 0 .621-3.04 4.506 4.506 0 0 0-2.186-2.223 15.5 15.5 0 0 0-3.023-1.216c-1.039-.317-2.134-.544-3.209-.893a17.762 17.762 0 0 1-3.12-1.312 8.594 8.594 0 0 1-2.642-2.169 4.859 4.859 0 0 1-1.048-3.236 5.707 5.707 0 0 1 1.229-3.102z" data-name="Path 10834" transform="translate(-731.568 -252.956)"/>
    <path id="prefix__Path_10835" d="M1018.161 441.344l-6.815 41.861s7.013-22.21 9.43-35.361c1.451-7.891.616-13.314-2.615-6.5z" class="prefix__cls-20" data-name="Path 10835" transform="translate(-724.959 -283.148)"/>
    <path id="prefix__Path_10836" d="M1037.146 369.839c.5 2.164 1 4.3 1.55 6.422.57 2.113 1.162 4.214 1.919 6.244a30.576 30.576 0 0 0 1.23 3 21.851 21.851 0 0 0 1.536 2.822 10.478 10.478 0 0 0 4.737 4.229A7.124 7.124 0 0 1 1045 391.3a11.639 11.639 0 0 1-2.457-2.372 21.909 21.909 0 0 1-3.17-5.966 37.824 37.824 0 0 1-1.681-6.481 35.4 35.4 0 0 1-.546-6.642z" data-name="Path 10836" transform="translate(-733.649 -260.105)" style="fill:#ffd9d9"/>
    <g id="prefix__Group_14675" data-name="Group 14675" transform="translate(225.874 182.872)">
        <path id="prefix__Path_10837" d="M920.424 490.719a.327.327 0 0 1-.163-.042.332.332 0 0 1-.126-.452l3.56-6.3a.356.356 0 0 1 .084-.1l4.6-3.621a.327.327 0 0 1 .245-.069l7.39.882a.332.332 0 1 1-.078.658l-7.253-.865-4.437 3.495-3.529 6.245a.332.332 0 0 1-.293.169z" class="prefix__cls-20" data-name="Path 10837" transform="translate(-920.092 -480.133)"/>
    </g>
    <g id="prefix__Group_14676" data-name="Group 14676" transform="translate(268.985 176.441)">
        <path id="prefix__Path_10838" d="M985.436 474.442a.332.332 0 0 1-.131-.636l3.59-1.542.592-1.612a.331.331 0 1 1 .622.228l-.64 1.746a.334.334 0 0 1-.181.19l-3.721 1.6a.329.329 0 0 1-.131.026z" class="prefix__cls-20" data-name="Path 10838" transform="translate(-985.105 -470.435)"/>
    </g>
    <g id="prefix__Group_14677" data-name="Group 14677" transform="translate(189.225 145.489)">
        <path id="prefix__Path_10839" d="M884.882 472.446a.5.5 0 0 1-.461-.308l-19.558-47.692a.5.5 0 1 1 .92-.377l19.558 47.692a.5.5 0 0 1-.46.686z" class="prefix__cls-1" data-name="Path 10839" transform="translate(-864.826 -423.759)"/>
    </g>
    <g id="prefix__Group_14682" data-name="Group 14682" transform="translate(240.821 213.52)">
        <g id="prefix__Group_14681" data-name="Group 14681">
            <g id="prefix__Group_14680" data-name="Group 14680">
                <g id="prefix__Group_14679" data-name="Group 14679">
                    <g id="prefix__Group_14678" data-name="Group 14678"/>
                </g>
            </g>
        </g>
    </g>
    <path id="prefix__Path_10841" d="M956.58 499.145a57.286 57.286 0 0 1 6.987 2.982c1.141.543 2.243 1.155 3.36 1.744 1.107.6 2.193 1.245 3.288 1.87q3.251 1.933 6.353 4.109a62.582 62.582 0 0 1 5.979 4.681c-2.343-1.005-4.58-2.166-6.8-3.36s-4.4-2.429-6.553-3.721l-3.218-1.956c-1.057-.678-2.134-1.323-3.18-2.023-2.105-1.371-4.19-2.782-6.216-4.326z" class="prefix__cls-20" data-name="Path 10841" transform="translate(-706.51 -303.665)"/>
    <g id="prefix__Group_14683" data-name="Group 14683" transform="translate(267.219 193.115)">
        <path id="prefix__Path_10842" d="M983.006 504.761a.564.564 0 0 1-.232-1.078l17.884-8.054a.564.564 0 0 1 .462 1.028l-17.883 8.054a.562.562 0 0 1-.231.05z" class="prefix__cls-1" data-name="Path 10842" transform="translate(-982.442 -495.579)"/>
    </g>
    <path id="prefix__Path_10844" d="M-1158.831-2070.56s-14.639-.576-29.442 45.418a297.273 297.273 0 0 0-15.491 58.32" class="prefix__cls-23" data-name="Path 10844" transform="translate(1521.26 2224.854)"/>
    <path id="prefix__Path_10845" d="M-1297.251-1979.005s10.912 13.947 46.641 19.59" class="prefix__cls-23" data-name="Path 10845" transform="translate(1526.381 2217.909)"/>
    <g id="prefix__Group_14684" data-name="Group 14684" transform="translate(210.794 144.029)">
        <path id="prefix__Path_10846" d="M-1323.443-2072.154l36.292-7.149" class="prefix__cls-24" data-name="Path 10846" transform="translate(1323.443 2079.303)"/>
        <path id="prefix__Path_10852" d="M-1323.443-2072.154l36.292-7.149" class="prefix__cls-24" data-name="Path 10852" transform="translate(1324.398 2082.17)"/>
        <path id="prefix__Path_10847" d="M-1322.188-2072.28l36.03-10.8" class="prefix__cls-24" data-name="Path 10847" transform="translate(1331.986 2107.179)"/>
        <path id="prefix__Path_10848" d="M-1323.443-2071.94l11.421-2.565" class="prefix__cls-24" data-name="Path 10848" transform="translate(1328.22 2094.377)"/>
        <path id="prefix__Path_10850" d="M0 3.584L12.936 0" class="prefix__cls-24" data-name="Path 10850" transform="rotate(2 -381.251 827.534)"/>
        <path id="prefix__Path_10849" d="M-1323.443-2071.921l8.258-2.162" class="prefix__cls-24" data-name="Path 10849" transform="translate(1330.131 2098.18)"/>
        <path id="prefix__Path_10851" d="M0 2.068L7.148 0" class="prefix__cls-24" data-name="Path 10851" transform="rotate(3 -334.603 591.191)"/>
    </g>
</svg>
